<?xml version="1.0" encoding="utf-8"?>
<!-- Generator: Adobe Illustrator 26.2.1, SVG Export Plug-In . SVG Version: 6.00 Build 0)  -->
<svg version="1.1" id="Layer_1" xmlns="http://www.w3.org/2000/svg" xmlns:xlink="http://www.w3.org/1999/xlink" x="0px" y="0px"
	 viewBox="0 0 264 280" style="enable-background:new 0 0 264 280;" xml:space="preserve">
<style type="text/css">
	.st0{fill-rule:evenodd;clip-rule:evenodd;fill:#E6E6E6;}
	.st1{filter:url(#Adobe_OpacityMaskFilter);}
	.st2{fill-rule:evenodd;clip-rule:evenodd;fill:#FFFFFF;}
	.st3{mask:url(#react-mask-4_00000054962294175649645650000008165472961239056571_);}
	.st4{fill-rule:evenodd;clip-rule:evenodd;fill:#2C3E50;}
	.st5{filter:url(#Adobe_OpacityMaskFilter_00000148633402780161791940000004545416147278021283_);}
	.st6{mask:url(#react-mask-5_00000105416956850623482980000015406458927603480975_);}
	.st7{fill-rule:evenodd;clip-rule:evenodd;fill:#D0C6AC;}
	.st8{filter:url(#Adobe_OpacityMaskFilter_00000057117508913644326420000010796915000439799977_);}
	.st9{mask:url(#react-mask-6_00000157987886612361529320000008877951621276314003_);}
	.st10{fill-rule:evenodd;clip-rule:evenodd;fill:#FFDBB4;}
	.st11{filter:url(#Adobe_OpacityMaskFilter_00000099639491519783117520000003922772937452736926_);}
	
		.st12{mask:url(#react-mask-6_00000087384057842534945170000008411546892586776448_);fill-rule:evenodd;clip-rule:evenodd;fill-opacity:0.1;}
	.st13{fill-rule:evenodd;clip-rule:evenodd;fill:#B7C1DB;}
	.st14{filter:url(#Adobe_OpacityMaskFilter_00000095332019913270041870000000918025099305805752_);}
	.st15{mask:url(#react-mask-184_00000021079811995090711620000012677186393905513900_);}
	.st16{filter:url(#Adobe_OpacityMaskFilter_00000106835020926684121800000013022399117343607169_);}
	
		.st17{mask:url(#react-mask-184_00000021822198195102851440000006198022122218367107_);fill-rule:evenodd;clip-rule:evenodd;fill:#F4F4F4;}
	.st18{filter:url(#Adobe_OpacityMaskFilter_00000026147835991770506200000016453900475507123893_);}
	
		.st19{mask:url(#react-mask-184_00000029757607751585435540000016827935911404412832_);fill-rule:evenodd;clip-rule:evenodd;fill-opacity:0.16;}
	.st20{fill-opacity:0.6;}
	.st21{fill-rule:evenodd;clip-rule:evenodd;fill-opacity:0.16;}
	.st22{fill-rule:evenodd;clip-rule:evenodd;fill-opacity:0.6;}
	.st23{filter:url(#Adobe_OpacityMaskFilter_00000095300193498100056220000014788388010111063479_);}
	.st24{mask:url(#react-mask-127_00000058585388765384468840000009752687028417820589_);}
	.st25{fill-rule:evenodd;clip-rule:evenodd;fill:#331B0C;}
	.st26{filter:url(#Adobe_OpacityMaskFilter_00000162342344966250356050000000208060714251462546_);}
	.st27{mask:url(#react-mask-139_00000039850215202156365890000008581951237798374532_);}
	.st28{fill-rule:evenodd;clip-rule:evenodd;fill:#B58143;}
	.st29{fill-rule:evenodd;clip-rule:evenodd;fill:#1F3140;}
	.st30{filter:url(#Adobe_OpacityMaskFilter_00000024682906796122041370000005582771952727939759_);}
	.st31{mask:url(#react-mask-126_00000137835336920280946100000003859417620395326857_);}
	.st32{fill-rule:evenodd;clip-rule:evenodd;fill:#D6B370;}
</style>
<desc>Created with getavataaars.com</desc>
<g id="Avataaar_00000083781666118943215310000012872586581605204925_">
	<g id="Avataaar_x2F_Circle" transform="translate(-825.000000, -1100.000000)">
		<g transform="translate(825.000000, 1100.000000)">
			<g id="Circle" transform="translate(12.000000, 40.000000)">
				<g id="Circle-Background">
					<circle id="react-path-1_00000176014998420349105310000005509460383310291121_" class="st0" cx="120" cy="120" r="120"/>
				</g>
				<defs>
					<filter id="Adobe_OpacityMaskFilter" filterUnits="userSpaceOnUse" x="0" y="0" width="240" height="240">
						<feColorMatrix  type="matrix" values="1 0 0 0 0  0 1 0 0 0  0 0 1 0 0  0 0 0 1 0"/>
					</filter>
				</defs>
				
					<mask maskUnits="userSpaceOnUse" x="0" y="0" width="240" height="240" id="react-mask-4_00000054962294175649645650000008165472961239056571_">
					<g class="st1">
						<circle id="react-path-1_00000107585783553149786260000012761062943131707278_" class="st2" cx="120" cy="120" r="120"/>
					</g>
				</mask>
				<g id="Color_x2F_Palette_x2F_Blue-01" class="st3">
					<rect id="_xD83D__xDD8D_Color" class="st4" width="240" height="240"/>
				</g>
			</g>
			<g id="Mask">
			</g>
			<defs>
				
					<filter id="Adobe_OpacityMaskFilter_00000173158729467075594510000005211999285594729368_" filterUnits="userSpaceOnUse" x="-1" y="0" width="297" height="316">
					<feColorMatrix  type="matrix" values="1 0 0 0 0  0 1 0 0 0  0 0 1 0 0  0 0 0 1 0"/>
				</filter>
			</defs>
			
				<mask maskUnits="userSpaceOnUse" x="-1" y="0" width="297" height="316" id="react-mask-5_00000105416956850623482980000015406458927603480975_">
				<g style="filter:url(#Adobe_OpacityMaskFilter_00000173158729467075594510000005211999285594729368_);">
					<path id="react-path-2_00000111174718020110930620000009543574604161342361_" class="st2" d="M12,160c0,66.3,53.7,120,120,120
						s120-53.7,120-120h12V0H0v160H12z"/>
				</g>
			</mask>
			<g id="Avataaar" class="st6">
				<g id="Body" transform="translate(32.000000, 36.000000)">
					<g>
						<path id="react-path-3_00000130627732738476816290000007533577913816200332_" class="st7" d="M124,144.6V163h4l0,0
							c39.8,0,72,32.2,72,72v9H0v-9c0-39.8,32.2-72,72-72l0,0h4v-18.4c-17.2-8.2-29.6-24.9-31.7-44.7C38.5,99.1,34,94.1,34,88V74
							c0-5.9,4.3-10.9,10-11.8V56l0,0c0-30.9,25.1-56,56-56l0,0l0,0c30.9,0,56,25.1,56,56v6.2c5.7,1,10,5.9,10,11.8v14
							c0,6.1-4.5,11.1-10.3,11.9C153.6,119.7,141.2,136.4,124,144.6z"/>
					</g>
					<defs>
						
							<filter id="Adobe_OpacityMaskFilter_00000001630094689750309620000015276293704086541702_" filterUnits="userSpaceOnUse" x="0" y="0" width="264" height="280">
							<feColorMatrix  type="matrix" values="1 0 0 0 0  0 1 0 0 0  0 0 1 0 0  0 0 0 1 0"/>
						</filter>
					</defs>
					
						<mask maskUnits="userSpaceOnUse" x="0" y="0" width="264" height="280" id="react-mask-6_00000157987886612361529320000008877951621276314003_">
						<g style="filter:url(#Adobe_OpacityMaskFilter_00000001630094689750309620000015276293704086541702_);">
							<path id="react-path-3_00000173160071575659843790000000395617620929367997_" class="st2" d="M124,144.6V163h4l0,0
								c39.8,0,72,32.2,72,72v9H0v-9c0-39.8,32.2-72,72-72l0,0h4v-18.4c-17.2-8.2-29.6-24.9-31.7-44.7C38.5,99.1,34,94.1,34,88V74
								c0-5.9,4.3-10.9,10-11.8V56l0,0c0-30.9,25.1-56,56-56l0,0l0,0c30.9,0,56,25.1,56,56v6.2c5.7,1,10,5.9,10,11.8v14
								c0,6.1-4.5,11.1-10.3,11.9C153.6,119.7,141.2,136.4,124,144.6z"/>
						</g>
					</mask>
					<g id="Skin_x2F__xD83D__xDC76__xD83C__xDFFD_-03-Brown" class="st9">
						<g id="Color" transform="translate(0.000000, 0.000000)">
							<rect class="st10" width="264" height="280"/>
						</g>
					</g>
					<defs>
						
							<filter id="Adobe_OpacityMaskFilter_00000026146410630400347770000015262035447859223226_" filterUnits="userSpaceOnUse" x="44" y="79" width="112" height="79">
							<feColorMatrix  type="matrix" values="1 0 0 0 0  0 1 0 0 0  0 0 1 0 0  0 0 0 1 0"/>
						</filter>
					</defs>
					
						<mask maskUnits="userSpaceOnUse" x="44" y="79" width="112" height="79" id="react-mask-6_00000087384057842534945170000008411546892586776448_">
						<g style="filter:url(#Adobe_OpacityMaskFilter_00000026146410630400347770000015262035447859223226_);">
							<path id="react-path-3_00000015317206753263724350000001990103656737092539_" class="st2" d="M124,144.6V163h4l0,0
								c39.8,0,72,32.2,72,72v9H0v-9c0-39.8,32.2-72,72-72l0,0h4v-18.4c-17.2-8.2-29.6-24.9-31.7-44.7C38.5,99.1,34,94.1,34,88V74
								c0-5.9,4.3-10.9,10-11.8V56l0,0c0-30.9,25.1-56,56-56l0,0l0,0c30.9,0,56,25.1,56,56v6.2c5.7,1,10,5.9,10,11.8v14
								c0,6.1-4.5,11.1-10.3,11.9C153.6,119.7,141.2,136.4,124,144.6z"/>
						</g>
					</mask>
					<path id="Neck-Shadow" class="st12" d="M156,79v23c0,30.9-25.1,56-56,56s-56-25.1-56-56V79v15c0,30.9,25.1,56,56,56
						s56-25.1,56-56V79z"/>
				</g>
				<g id="Clothing_x2F_Hoodie" transform="translate(0.000000, 170.000000)">
					<g id="Hoodie">
						<path id="react-path-183_00000056406345884606853570000011733403271091486357_" class="st13" d="M108,13.1
							c-17.9,2-31.7,7.5-32,21.6C50.1,45.6,32,71.2,32,101l0,0v9h200v-9c0-29.8-18.1-55.4-44-66.4c-0.3-14.1-14.1-19.6-32-21.6V32
							l0,0c0,13.3-10.7,24-24,24l0,0c-13.3,0-24-10.7-24-24V13.1z"/>
					</g>
					<defs>
						
							<filter id="Adobe_OpacityMaskFilter_00000045598533931714033360000002828970153096809370_" filterUnits="userSpaceOnUse" x="0" y="0" width="264" height="110">
							<feColorMatrix  type="matrix" values="1 0 0 0 0  0 1 0 0 0  0 0 1 0 0  0 0 0 1 0"/>
						</filter>
					</defs>
					
						<mask maskUnits="userSpaceOnUse" x="0" y="0" width="264" height="110" id="react-mask-184_00000021079811995090711620000012677186393905513900_">
						<g style="filter:url(#Adobe_OpacityMaskFilter_00000045598533931714033360000002828970153096809370_);">
							<path id="react-path-183_00000047770825032380629000000002317320359840113570_" class="st2" d="M108,13.1
								c-17.9,2-31.7,7.5-32,21.6C50.1,45.6,32,71.2,32,101l0,0v9h200v-9c0-29.8-18.1-55.4-44-66.4c-0.3-14.1-14.1-19.6-32-21.6V32
								l0,0c0,13.3-10.7,24-24,24l0,0c-13.3,0-24-10.7-24-24V13.1z"/>
						</g>
					</mask>
					<g id="Color_x2F_Palette_x2F_Gray-01" class="st15">
						<rect id="_xD83D__xDD8D_Color_00000155129974051391178040000008375884067874641298_" class="st2" width="264" height="110"/>
					</g>
					<defs>
						
							<filter id="Adobe_OpacityMaskFilter_00000142173904407611267050000018105244284973544891_" filterUnits="userSpaceOnUse" x="95" y="58.2" width="74" height="51.8">
							<feColorMatrix  type="matrix" values="1 0 0 0 0  0 1 0 0 0  0 0 1 0 0  0 0 0 1 0"/>
						</filter>
					</defs>
					
						<mask maskUnits="userSpaceOnUse" x="95" y="58.2" width="74" height="51.8" id="react-mask-184_00000021822198195102851440000006198022122218367107_">
						<g style="filter:url(#Adobe_OpacityMaskFilter_00000142173904407611267050000018105244284973544891_);">
							<path id="react-path-183_00000096040159234507820050000006126648645062134660_" class="st2" d="M108,13.1
								c-17.9,2-31.7,7.5-32,21.6C50.1,45.6,32,71.2,32,101l0,0v9h200v-9c0-29.8-18.1-55.4-44-66.4c-0.3-14.1-14.1-19.6-32-21.6V32
								l0,0c0,13.3-10.7,24-24,24l0,0c-13.3,0-24-10.7-24-24V13.1z"/>
						</g>
					</mask>
					<path id="Straps" class="st17" d="M102,61.7V110h-7V58.2C97.2,59.5,99.5,60.7,102,61.7z M169,58.2v40.3c0,1.9-1.6,3.5-3.5,3.5
						s-3.5-1.6-3.5-3.5V61.7C164.5,60.7,166.8,59.5,169,58.2z"/>
					<defs>
						
							<filter id="Adobe_OpacityMaskFilter_00000055681492344602206940000015839282892765059485_" filterUnits="userSpaceOnUse" x="65.5" y="12.7" width="133" height="55.3">
							<feColorMatrix  type="matrix" values="1 0 0 0 0  0 1 0 0 0  0 0 1 0 0  0 0 0 1 0"/>
						</filter>
					</defs>
					
						<mask maskUnits="userSpaceOnUse" x="65.5" y="12.7" width="133" height="55.3" id="react-mask-184_00000029757607751585435540000016827935911404412832_">
						<g style="filter:url(#Adobe_OpacityMaskFilter_00000055681492344602206940000015839282892765059485_);">
							<path id="react-path-183_00000026875772239304890050000009693309677642698924_" class="st2" d="M108,13.1
								c-17.9,2-31.7,7.5-32,21.6C50.1,45.6,32,71.2,32,101l0,0v9h200v-9c0-29.8-18.1-55.4-44-66.4c-0.3-14.1-14.1-19.6-32-21.6V32
								l0,0c0,13.3-10.7,24-24,24l0,0c-13.3,0-24-10.7-24-24V13.1z"/>
						</g>
					</mask>
					<path id="Shadow" class="st19" d="M91,12.7c-15.1,2.8-25.5,8.5-25.5,19.6C65.5,52,98.5,68,132,68s66.5-16,66.5-35.7
						c0-11.1-10.4-16.7-25.5-19.6c9.1,3.4,15,9,15,18.4c0,20.4-27.8,36.9-56,36.9S76,51.5,76,31.1C76,21.7,81.9,16.1,91,12.7z"/>
				</g>
				<g id="Face" transform="translate(76.000000, 82.000000)">
					<g id="Mouth_x2F_Twinkle" transform="translate(2.000000, 52.000000)">
						<path id="Mouth" class="st20" d="M40,16c0,5.4,6.2,9,14,9s14-3.6,14-9c0-1.1-0.9-2-2-2c-1.3,0-1.9,0.9-2,2
							c-1.2,2.9-4.3,4.7-10,5c-5.7-0.3-8.8-2.1-10-5c-0.1-1.1-0.7-2-2-2C40.9,14,40,14.9,40,16z"/>
					</g>
					<g id="Nose_x2F_Default" transform="translate(28.000000, 40.000000)">
						<path id="Nose" class="st21" d="M16,8c0,4.4,5.4,8,12,8l0,0c6.6,0,12-3.6,12-8"/>
					</g>
					<g id="Eyes_x2F_Happy-_xD83D__xDE01_" transform="translate(0.000000, 8.000000)">
						<path id="Squint" class="st22" d="M16.2,22.4C18,18.6,22.2,16,27,16c4.8,0,9,2.6,10.8,6.4c0.6,1.1-0.2,2-1,1.4
							c-2.5-2.1-5.9-3.4-9.8-3.4c-3.7,0-7.1,1.2-9.6,3.2C16.5,24.3,15.6,23.6,16.2,22.4z"/>
						<path id="Squint_00000004504450841167979290000009535153618088654501_" class="st22" d="M74.2,22.4C76,18.6,80.2,16,85,16
							c4.8,0,9,2.6,10.8,6.4c0.6,1.1-0.2,2-1,1.4c-2.5-2.1-5.9-3.4-9.8-3.4c-3.7,0-7.1,1.2-9.6,3.2C74.5,24.3,73.6,23.6,74.2,22.4z"
							/>
					</g>
					<g id="Eyebrow_x2F_Natural_x2F_Default-Natural">
						<path id="Eyebrow" class="st22" d="M26.5,6.1c-5.8,0.3-15.2,4.5-15,10.3c0,0.2,0.3,0.3,0.4,0.1c2.8-3,22.3-5.9,29.2-4.4
							c0.6,0.1,1.1-0.5,0.7-0.9C38.5,7.5,31.7,5.9,26.5,6.1"/>
						<path id="Eyebrow_00000111875930221205720190000016874778414858504848_" class="st22" d="M86.5,6.1c5.8,0.3,15.2,4.5,15,10.3
							c0,0.2-0.3,0.3-0.4,0.1c-2.8-3-22.3-5.9-29.2-4.4c-0.6,0.1-1.1-0.5-0.7-0.9C74.5,7.5,81.3,5.9,86.5,6.1"/>
					</g>
				</g>
				<g id="Top">
					<g id="Mask_00000089539879127899747660000017622387163923482030_">
					</g>
					<defs>
						
							<filter id="Adobe_OpacityMaskFilter_00000111172296421633263290000007007453253013442717_" filterUnits="userSpaceOnUse" x="-1" y="0" width="281" height="316">
							<feColorMatrix  type="matrix" values="1 0 0 0 0  0 1 0 0 0  0 0 1 0 0  0 0 0 1 0"/>
						</filter>
					</defs>
					
						<mask maskUnits="userSpaceOnUse" x="-1" y="0" width="281" height="316" id="react-mask-127_00000058585388765384468840000009752687028417820589_">
						<g style="filter:url(#Adobe_OpacityMaskFilter_00000111172296421633263290000007007453253013442717_);">
							<rect id="react-path-129_00000088113148704990444530000008609322593940995469_" class="st2" width="264" height="280"/>
						</g>
					</mask>
					<g id="Top_x2F_Short-Hair_x2F_Short-Flat" class="st24">
						<g transform="translate(-1.000000, 0.000000)">
							<g id="Facial-Hair_x2F_Beard-Light" transform="translate(49.000000, 72.000000)">
								<g id="Lite-Beard">
									<path id="react-path-140_00000147207586046112568770000010713028097510994615_" class="st25" d="M101.4,98.2
										c-2.5,2.3-5.2,3.3-8.6,2.6c-0.6-0.1-3-4.5-8.9-4.5c-5.9,0-8.3,4.4-8.9,4.5c-3.4,0.7-6.1-0.3-8.6-2.6
										c-4.7-4.3-8.7-10.3-6.3-16.7c1.2-3.4,3.2-7.1,6.9-8.2c3.9-1.2,9.3,0,13.3-0.8c1.3-0.3,2.7-0.7,3.6-1.5
										c0.9,0.8,2.3,1.2,3.6,1.5c3.9,0.8,9.4-0.4,13.3,0.8c3.6,1.1,5.6,4.8,6.9,8.2C110.1,87.9,106.2,93.9,101.4,98.2 M140.1,26
										c-3.4,8.4-2.1,18.9-2.7,27.7c-0.5,7.2-2,17.9-8.4,22.5c-3.3,2.4-9.2,6.3-13.4,5.2c-2.9-0.8-3.2-9.2-7.1-12.3
										c-4.4-3.6-9.8-5.1-15.3-4.9c-2.4,0.1-7.2,0.1-9.1,1.9c-2-1.8-6.8-1.8-9.1-1.9c-5.5-0.2-10.9,1.3-15.3,4.9
										c-3.8,3.1-4.2,11.5-7.1,12.3c-4.3,1.1-10.2-2.9-13.4-5.2c-6.4-4.6-7.9-15.4-8.4-22.5C30,44.9,31.3,34.4,27.9,26
										c-1.7,0-0.6,16.1-0.6,16.1v20.4c0,15.3,9.6,38.2,30.8,46.9C63.3,111.5,75,115,84,115s20.7-3.1,25.9-5.3
										c21.2-8.7,30.7-32,30.8-47.2V42.1C140.6,42.1,141.7,26,140.1,26"/>
								</g>
								<defs>
									
										<filter id="Adobe_OpacityMaskFilter_00000133490100977308936370000014168526144597590696_" filterUnits="userSpaceOnUse" x="-32" y="0" width="264" height="244">
										<feColorMatrix  type="matrix" values="1 0 0 0 0  0 1 0 0 0  0 0 1 0 0  0 0 0 1 0"/>
									</filter>
								</defs>
								
									<mask maskUnits="userSpaceOnUse" x="-32" y="0" width="264" height="244" id="react-mask-139_00000039850215202156365890000008581951237798374532_">
									<g style="filter:url(#Adobe_OpacityMaskFilter_00000133490100977308936370000014168526144597590696_);">
										<path id="react-path-140_00000143593694486272397650000000681519826061224321_" class="st2" d="M101.4,98.2
											c-2.5,2.3-5.2,3.3-8.6,2.6c-0.6-0.1-3-4.5-8.9-4.5c-5.9,0-8.3,4.4-8.9,4.5c-3.4,0.7-6.1-0.3-8.6-2.6
											c-4.7-4.3-8.7-10.3-6.3-16.7c1.2-3.4,3.2-7.1,6.9-8.2c3.9-1.2,9.3,0,13.3-0.8c1.3-0.3,2.7-0.7,3.6-1.5
											c0.9,0.8,2.3,1.2,3.6,1.5c3.9,0.8,9.4-0.4,13.3,0.8c3.6,1.1,5.6,4.8,6.9,8.2C110.1,87.9,106.2,93.9,101.4,98.2 M140.1,26
											c-3.4,8.4-2.1,18.9-2.7,27.7c-0.5,7.2-2,17.9-8.4,22.5c-3.3,2.4-9.2,6.3-13.4,5.2c-2.9-0.8-3.2-9.2-7.1-12.3
											c-4.4-3.6-9.8-5.1-15.3-4.9c-2.4,0.1-7.2,0.1-9.1,1.9c-2-1.8-6.8-1.8-9.1-1.9c-5.5-0.2-10.9,1.3-15.3,4.9
											c-3.8,3.1-4.2,11.5-7.1,12.3c-4.3,1.1-10.2-2.9-13.4-5.2c-6.4-4.6-7.9-15.4-8.4-22.5C30,44.9,31.3,34.4,27.9,26
											c-1.7,0-0.6,16.1-0.6,16.1v20.4c0,15.3,9.6,38.2,30.8,46.9C63.3,111.5,75,115,84,115s20.7-3.1,25.9-5.3
											c21.2-8.7,30.7-32,30.8-47.2V42.1C140.6,42.1,141.7,26,140.1,26"/>
									</g>
								</mask>
								<g id="Color_x2F_Hair_x2F_Brown" class="st27">
									<g id="Color_00000015329326032402939150000007817002407576145595_" transform="translate(-32.000000, 0.000000)">
										<rect class="st28" width="264" height="244"/>
									</g>
								</g>
							</g>
							<g id="Short-Hair">
								<path id="react-path-128_00000030474834655558999380000011515170005706311833_" class="st29" d="M180.1,39.9
									c-2.8-2.8-6-5.2-9.1-7.6c-0.7-0.5-1.4-1-2.1-1.6c-0.2-0.1-1.7-1.2-1.9-1.7c-0.5-1-0.2-0.2-0.1-1.4c0.1-1.5,3.1-5.7,0.9-6.7
									c-1-0.4-2.8,0.7-3.8,1.1c-1.9,0.7-3.8,1.4-5.7,1.9c0.9-1.9,2.7-5.6-0.6-4.6c-2.6,0.8-5,2.8-7.6,3.7c0.9-1.4,4.3-5.8,1.2-6.1
									c-1-0.1-3.8,1.7-4.9,2.1c-3.1,1.2-6.3,1.9-9.6,2.5c-11.2,2-24.3,1.4-34.7,6.5c-8,3.9-15.9,10-20.5,17.8
									c-4.4,7.5-6.1,15.7-7,24.3c-0.7,6.3-0.7,12.8-0.4,19.1c0.1,2.1,0.3,11.6,3.3,8.7c1.5-1.4,1.5-7.3,1.9-9.2
									c0.8-3.9,1.5-7.8,2.7-11.6c2.2-6.7,4.8-13.8,10.3-18.4c3.5-3,6-6.9,9.4-9.9c1.5-1.3,0.4-1.2,2.8-1c1.6,0.1,3.3,0.2,4.9,0.2
									c3.8,0.1,7.6,0.1,11.4,0.1c7.6,0,15.3,0.1,22.9-0.3c3.4-0.2,6.8-0.3,10.2-0.6c1.9-0.2,5.2-1.4,6.8-0.5
									c1.4,0.8,2.9,3.6,3.9,4.7c2.4,2.7,5.3,4.7,8.1,6.9c5.9,4.6,8.9,10.3,10.7,17.5c1.8,7.1,1.3,13.7,3.5,20.8
									c0.4,1.2,1.4,3.4,2.7,1.5c0.2-0.4,0.2-2.3,0.2-3.4c0-4.5,1.1-7.9,1.1-12.5C190.9,68.5,190.5,50.5,180.1,39.9z"/>
							</g>
							<defs>
								
									<filter id="Adobe_OpacityMaskFilter_00000082341208721718119340000002537266036908763538_" filterUnits="userSpaceOnUse" x="0" y="0" width="264" height="280">
									<feColorMatrix  type="matrix" values="1 0 0 0 0  0 1 0 0 0  0 0 1 0 0  0 0 0 1 0"/>
								</filter>
							</defs>
							
								<mask maskUnits="userSpaceOnUse" x="0" y="0" width="264" height="280" id="react-mask-126_00000137835336920280946100000003859417620395326857_">
								<g style="filter:url(#Adobe_OpacityMaskFilter_00000082341208721718119340000002537266036908763538_);">
									<path id="react-path-128_00000114796643676661660960000004272612045694164636_" class="st2" d="M180.1,39.9
										c-2.8-2.8-6-5.2-9.1-7.6c-0.7-0.5-1.4-1-2.1-1.6c-0.2-0.1-1.7-1.2-1.9-1.7c-0.5-1-0.2-0.2-0.1-1.4c0.1-1.5,3.1-5.7,0.9-6.7
										c-1-0.4-2.8,0.7-3.8,1.1c-1.9,0.7-3.8,1.4-5.7,1.9c0.9-1.9,2.7-5.6-0.6-4.6c-2.6,0.8-5,2.8-7.6,3.7
										c0.9-1.4,4.3-5.8,1.2-6.1c-1-0.1-3.8,1.7-4.9,2.1c-3.1,1.2-6.3,1.9-9.6,2.5c-11.2,2-24.3,1.4-34.7,6.5
										c-8,3.9-15.9,10-20.5,17.8c-4.4,7.5-6.1,15.7-7,24.3c-0.7,6.3-0.7,12.8-0.4,19.1c0.1,2.1,0.3,11.6,3.3,8.7
										c1.5-1.4,1.5-7.3,1.9-9.2c0.8-3.9,1.5-7.8,2.7-11.6c2.2-6.7,4.8-13.8,10.3-18.4c3.5-3,6-6.9,9.4-9.9c1.5-1.3,0.4-1.2,2.8-1
										c1.6,0.1,3.3,0.2,4.9,0.2c3.8,0.1,7.6,0.1,11.4,0.1c7.6,0,15.3,0.1,22.9-0.3c3.4-0.2,6.8-0.3,10.2-0.6
										c1.9-0.2,5.2-1.4,6.8-0.5c1.4,0.8,2.9,3.6,3.9,4.7c2.4,2.7,5.3,4.7,8.1,6.9c5.9,4.6,8.9,10.3,10.7,17.5
										c1.8,7.1,1.3,13.7,3.5,20.8c0.4,1.2,1.4,3.4,2.7,1.5c0.2-0.4,0.2-2.3,0.2-3.4c0-4.5,1.1-7.9,1.1-12.5
										C190.9,68.5,190.5,50.5,180.1,39.9z"/>
								</g>
							</mask>
							<g id="Skin_x2F__xD83D__xDC76__xD83C__xDFFD_-03-Brown_00000009590592493494769060000018248174536010266753_" class="st31">
								<g id="Color_00000135664568074387891930000017559595666664081846_" transform="translate(0.000000, 0.000000) ">
									<rect class="st32" width="264" height="280"/>
								</g>
							</g>
						</g>
					</g>
				</g>
			</g>
		</g>
	</g>
</g>
</svg>
